<svg width="100" height="100" viewBox="0 0 100 100" xmlns="http://www.w3.org/2000/svg">
  <g fill="none" stroke="cyan" stroke-width="3" stroke-linecap="round" stroke-linejoin="round">
    
    <path d="M 10 10 L 30 30 M 10 30 L 30 10" />
    <path d="M 70 10 L 90 30 M 70 30 L 90 10" />
    <path d="M 10 70 L 30 90 M 10 90 L 30 70" />
    <path d="M 70 70 L 90 90 M 70 90 L 90 70" />

    <path d="M 50,35 L 65,42 L 65,58 L 50,65 L 35,58 L 35,42 Z" />
    <line x1="35" y1="42" x2="20" y2="20" />
    <line x1="65" y1="42" x2="80" y2="20" />
    <line x1="35" y1="58" x2="20" y2="80" />
    <line x1="65" y1="58" x2="80" y2="80" />
    <circle cx="20" cy="20" r="6" />
    <circle cx="80" cy="20" r="6" />
    <circle cx="20" cy="80" r="6" />
    <circle cx="80" cy="80" r="6" />
  </g>
</svg>